<mxfile host="app.diagrams.net" modified="2023-08-10T17:25:05.284Z" agent="Mozilla/5.0 (Windows NT 10.0; Win64; x64) AppleWebKit/537.36 (KHTML, like Gecko) Chrome/113.0.0.0 Safari/537.36" etag="X_KXfoIWTBrH8R3OGURW" version="21.6.8" type="device">
  <diagram name="P치gina-1" id="rcpCOle1H92mKy1sSjLp">
    <mxGraphModel dx="880" dy="484" grid="1" gridSize="10" guides="1" tooltips="1" connect="1" arrows="1" fold="1" page="1" pageScale="1" pageWidth="827" pageHeight="1169" math="0" shadow="0">
      <root>
        <mxCell id="0" />
        <mxCell id="1" parent="0" />
        <mxCell id="tddwjaCoOD4uYsPgDnM7-1" value="Usuario" style="swimlane;fontStyle=1;align=center;verticalAlign=top;childLayout=stackLayout;horizontal=1;startSize=26;horizontalStack=0;resizeParent=1;resizeParentMax=0;resizeLast=0;collapsible=1;marginBottom=0;whiteSpace=wrap;html=1;" parent="1" vertex="1">
          <mxGeometry x="70" y="170" width="160" height="190" as="geometry" />
        </mxCell>
        <mxCell id="tddwjaCoOD4uYsPgDnM7-2" value="-ID&lt;br&gt;-Nombre&lt;br&gt;-Apellido&lt;br&gt;-Mail&lt;br&gt;-Contrase침a" style="text;strokeColor=none;fillColor=none;align=left;verticalAlign=top;spacingLeft=4;spacingRight=4;overflow=hidden;rotatable=0;points=[[0,0.5],[1,0.5]];portConstraint=eastwest;whiteSpace=wrap;html=1;" parent="tddwjaCoOD4uYsPgDnM7-1" vertex="1">
          <mxGeometry y="26" width="160" height="84" as="geometry" />
        </mxCell>
        <mxCell id="tddwjaCoOD4uYsPgDnM7-3" value="" style="line;strokeWidth=1;fillColor=none;align=left;verticalAlign=middle;spacingTop=-1;spacingLeft=3;spacingRight=3;rotatable=0;labelPosition=right;points=[];portConstraint=eastwest;strokeColor=inherit;" parent="tddwjaCoOD4uYsPgDnM7-1" vertex="1">
          <mxGeometry y="110" width="160" height="8" as="geometry" />
        </mxCell>
        <mxCell id="tddwjaCoOD4uYsPgDnM7-4" value="+Ingresar()&lt;br&gt;+Registrarse()&lt;br&gt;+Modificar()&lt;br&gt;+Eliminar()" style="text;strokeColor=none;fillColor=none;align=left;verticalAlign=top;spacingLeft=4;spacingRight=4;overflow=hidden;rotatable=0;points=[[0,0.5],[1,0.5]];portConstraint=eastwest;whiteSpace=wrap;html=1;" parent="tddwjaCoOD4uYsPgDnM7-1" vertex="1">
          <mxGeometry y="118" width="160" height="72" as="geometry" />
        </mxCell>
        <mxCell id="tddwjaCoOD4uYsPgDnM7-9" value="Gimnasio" style="swimlane;fontStyle=1;align=center;verticalAlign=top;childLayout=stackLayout;horizontal=1;startSize=26;horizontalStack=0;resizeParent=1;resizeParentMax=0;resizeLast=0;collapsible=1;marginBottom=0;whiteSpace=wrap;html=1;" parent="1" vertex="1">
          <mxGeometry x="430" y="170" width="160" height="250" as="geometry" />
        </mxCell>
        <mxCell id="tddwjaCoOD4uYsPgDnM7-10" value="-Nombre&lt;br&gt;-Ubicaci칩n&lt;br&gt;-Fotos&lt;br&gt;-Acts&lt;br&gt;-Maquinas&lt;br&gt;-Horarios&lt;br&gt;-Precios&lt;br&gt;-Clientes&lt;br&gt;-Valoracion" style="text;strokeColor=none;fillColor=none;align=left;verticalAlign=top;spacingLeft=4;spacingRight=4;overflow=hidden;rotatable=0;points=[[0,0.5],[1,0.5]];portConstraint=eastwest;whiteSpace=wrap;html=1;" parent="tddwjaCoOD4uYsPgDnM7-9" vertex="1">
          <mxGeometry y="26" width="160" height="134" as="geometry" />
        </mxCell>
        <mxCell id="tddwjaCoOD4uYsPgDnM7-11" value="" style="line;strokeWidth=1;fillColor=none;align=left;verticalAlign=middle;spacingTop=-1;spacingLeft=3;spacingRight=3;rotatable=0;labelPosition=right;points=[];portConstraint=eastwest;strokeColor=inherit;" parent="tddwjaCoOD4uYsPgDnM7-9" vertex="1">
          <mxGeometry y="160" width="160" height="8" as="geometry" />
        </mxCell>
        <mxCell id="tddwjaCoOD4uYsPgDnM7-12" value="+Ver_clientes()&lt;br&gt;+Generar_estadisticas()&lt;br&gt;+Modificar()&lt;br&gt;+Eliminar()&lt;br&gt;+Ver_valoracion" style="text;strokeColor=none;fillColor=none;align=left;verticalAlign=top;spacingLeft=4;spacingRight=4;overflow=hidden;rotatable=0;points=[[0,0.5],[1,0.5]];portConstraint=eastwest;whiteSpace=wrap;html=1;" parent="tddwjaCoOD4uYsPgDnM7-9" vertex="1">
          <mxGeometry y="168" width="160" height="82" as="geometry" />
        </mxCell>
        <mxCell id="tddwjaCoOD4uYsPgDnM7-13" value="Valora" style="swimlane;fontStyle=1;align=center;verticalAlign=top;childLayout=stackLayout;horizontal=1;startSize=26;horizontalStack=0;resizeParent=1;resizeParentMax=0;resizeLast=0;collapsible=1;marginBottom=0;whiteSpace=wrap;html=1;" parent="1" vertex="1">
          <mxGeometry x="250" y="10" width="160" height="94" as="geometry" />
        </mxCell>
        <mxCell id="tddwjaCoOD4uYsPgDnM7-14" value="-Puntaje&lt;br&gt;-Rese침a" style="text;strokeColor=none;fillColor=none;align=left;verticalAlign=top;spacingLeft=4;spacingRight=4;overflow=hidden;rotatable=0;points=[[0,0.5],[1,0.5]];portConstraint=eastwest;whiteSpace=wrap;html=1;" parent="tddwjaCoOD4uYsPgDnM7-13" vertex="1">
          <mxGeometry y="26" width="160" height="34" as="geometry" />
        </mxCell>
        <mxCell id="tddwjaCoOD4uYsPgDnM7-15" value="" style="line;strokeWidth=1;fillColor=none;align=left;verticalAlign=middle;spacingTop=-1;spacingLeft=3;spacingRight=3;rotatable=0;labelPosition=right;points=[];portConstraint=eastwest;strokeColor=inherit;" parent="tddwjaCoOD4uYsPgDnM7-13" vertex="1">
          <mxGeometry y="60" width="160" height="8" as="geometry" />
        </mxCell>
        <mxCell id="tddwjaCoOD4uYsPgDnM7-16" value="&amp;nbsp;" style="text;strokeColor=none;fillColor=none;align=left;verticalAlign=top;spacingLeft=4;spacingRight=4;overflow=hidden;rotatable=0;points=[[0,0.5],[1,0.5]];portConstraint=eastwest;whiteSpace=wrap;html=1;" parent="tddwjaCoOD4uYsPgDnM7-13" vertex="1">
          <mxGeometry y="68" width="160" height="26" as="geometry" />
        </mxCell>
        <mxCell id="tddwjaCoOD4uYsPgDnM7-17" value="" style="endArrow=none;html=1;rounded=0;entryX=0.438;entryY=-0.004;entryDx=0;entryDy=0;entryPerimeter=0;" parent="1" target="tddwjaCoOD4uYsPgDnM7-9" edge="1">
          <mxGeometry width="50" height="50" relative="1" as="geometry">
            <mxPoint x="120" y="169" as="sourcePoint" />
            <mxPoint x="580" y="140" as="targetPoint" />
            <Array as="points">
              <mxPoint x="120" y="130" />
              <mxPoint x="500" y="130" />
            </Array>
          </mxGeometry>
        </mxCell>
        <mxCell id="tddwjaCoOD4uYsPgDnM7-18" value="" style="endArrow=none;dashed=1;html=1;rounded=0;entryX=0.438;entryY=0.846;entryDx=0;entryDy=0;entryPerimeter=0;" parent="1" target="tddwjaCoOD4uYsPgDnM7-16" edge="1">
          <mxGeometry width="50" height="50" relative="1" as="geometry">
            <mxPoint x="320" y="130" as="sourcePoint" />
            <mxPoint x="320" y="110" as="targetPoint" />
          </mxGeometry>
        </mxCell>
        <mxCell id="tddwjaCoOD4uYsPgDnM7-19" value="n" style="text;html=1;align=center;verticalAlign=middle;resizable=0;points=[];autosize=1;strokeColor=none;fillColor=none;" parent="1" vertex="1">
          <mxGeometry x="114" y="145" width="30" height="30" as="geometry" />
        </mxCell>
        <mxCell id="tddwjaCoOD4uYsPgDnM7-20" value="m" style="text;html=1;align=center;verticalAlign=middle;resizable=0;points=[];autosize=1;strokeColor=none;fillColor=none;" parent="1" vertex="1">
          <mxGeometry x="494" y="145" width="30" height="30" as="geometry" />
        </mxCell>
        <mxCell id="tddwjaCoOD4uYsPgDnM7-21" value="" style="endArrow=none;html=1;rounded=0;exitX=1;exitY=0.583;exitDx=0;exitDy=0;exitPerimeter=0;entryX=-0.006;entryY=0.366;entryDx=0;entryDy=0;entryPerimeter=0;" parent="1" edge="1">
          <mxGeometry width="50" height="50" relative="1" as="geometry">
            <mxPoint x="230" y="211.97199999999998" as="sourcePoint" />
            <mxPoint x="429.03999999999996" y="212.04399999999998" as="targetPoint" />
          </mxGeometry>
        </mxCell>
        <mxCell id="tddwjaCoOD4uYsPgDnM7-22" value="Busca" style="swimlane;fontStyle=1;align=center;verticalAlign=top;childLayout=stackLayout;horizontal=1;startSize=26;horizontalStack=0;resizeParent=1;resizeParentMax=0;resizeLast=0;collapsible=1;marginBottom=0;whiteSpace=wrap;html=1;" parent="1" vertex="1">
          <mxGeometry x="243" y="270" width="160" height="124" as="geometry" />
        </mxCell>
        <mxCell id="tddwjaCoOD4uYsPgDnM7-23" value="-Ubicacion&lt;br&gt;-Horarios&lt;br&gt;-Precio&lt;br&gt;-Acts" style="text;strokeColor=none;fillColor=none;align=left;verticalAlign=top;spacingLeft=4;spacingRight=4;overflow=hidden;rotatable=0;points=[[0,0.5],[1,0.5]];portConstraint=eastwest;whiteSpace=wrap;html=1;" parent="tddwjaCoOD4uYsPgDnM7-22" vertex="1">
          <mxGeometry y="26" width="160" height="64" as="geometry" />
        </mxCell>
        <mxCell id="tddwjaCoOD4uYsPgDnM7-24" value="" style="line;strokeWidth=1;fillColor=none;align=left;verticalAlign=middle;spacingTop=-1;spacingLeft=3;spacingRight=3;rotatable=0;labelPosition=right;points=[];portConstraint=eastwest;strokeColor=inherit;" parent="tddwjaCoOD4uYsPgDnM7-22" vertex="1">
          <mxGeometry y="90" width="160" height="8" as="geometry" />
        </mxCell>
        <mxCell id="tddwjaCoOD4uYsPgDnM7-25" value="&amp;nbsp; &amp;nbsp;" style="text;strokeColor=none;fillColor=none;align=left;verticalAlign=top;spacingLeft=4;spacingRight=4;overflow=hidden;rotatable=0;points=[[0,0.5],[1,0.5]];portConstraint=eastwest;whiteSpace=wrap;html=1;" parent="tddwjaCoOD4uYsPgDnM7-22" vertex="1">
          <mxGeometry y="98" width="160" height="26" as="geometry" />
        </mxCell>
        <mxCell id="tddwjaCoOD4uYsPgDnM7-26" value="" style="endArrow=none;dashed=1;html=1;rounded=0;" parent="1" edge="1">
          <mxGeometry width="50" height="50" relative="1" as="geometry">
            <mxPoint x="320" y="270" as="sourcePoint" />
            <mxPoint x="320" y="210" as="targetPoint" />
          </mxGeometry>
        </mxCell>
        <mxCell id="tddwjaCoOD4uYsPgDnM7-27" value="n" style="text;html=1;align=center;verticalAlign=middle;resizable=0;points=[];autosize=1;strokeColor=none;fillColor=none;" parent="1" vertex="1">
          <mxGeometry x="224" y="189" width="30" height="30" as="geometry" />
        </mxCell>
        <mxCell id="tddwjaCoOD4uYsPgDnM7-28" value="m" style="text;html=1;align=center;verticalAlign=middle;resizable=0;points=[];autosize=1;strokeColor=none;fillColor=none;" parent="1" vertex="1">
          <mxGeometry x="403" y="190" width="30" height="30" as="geometry" />
        </mxCell>
        <mxCell id="tddwjaCoOD4uYsPgDnM7-29" value="Due침o" style="swimlane;fontStyle=1;align=center;verticalAlign=top;childLayout=stackLayout;horizontal=1;startSize=26;horizontalStack=0;resizeParent=1;resizeParentMax=0;resizeLast=0;collapsible=1;marginBottom=0;whiteSpace=wrap;html=1;" parent="1" vertex="1">
          <mxGeometry x="100" y="450" width="160" height="86" as="geometry" />
        </mxCell>
        <mxCell id="tddwjaCoOD4uYsPgDnM7-30" value="-Nombre_gym" style="text;strokeColor=none;fillColor=none;align=left;verticalAlign=top;spacingLeft=4;spacingRight=4;overflow=hidden;rotatable=0;points=[[0,0.5],[1,0.5]];portConstraint=eastwest;whiteSpace=wrap;html=1;" parent="tddwjaCoOD4uYsPgDnM7-29" vertex="1">
          <mxGeometry y="26" width="160" height="26" as="geometry" />
        </mxCell>
        <mxCell id="tddwjaCoOD4uYsPgDnM7-31" value="" style="line;strokeWidth=1;fillColor=none;align=left;verticalAlign=middle;spacingTop=-1;spacingLeft=3;spacingRight=3;rotatable=0;labelPosition=right;points=[];portConstraint=eastwest;strokeColor=inherit;" parent="tddwjaCoOD4uYsPgDnM7-29" vertex="1">
          <mxGeometry y="52" width="160" height="8" as="geometry" />
        </mxCell>
        <mxCell id="tddwjaCoOD4uYsPgDnM7-32" value="+Contestar()" style="text;strokeColor=none;fillColor=none;align=left;verticalAlign=top;spacingLeft=4;spacingRight=4;overflow=hidden;rotatable=0;points=[[0,0.5],[1,0.5]];portConstraint=eastwest;whiteSpace=wrap;html=1;" parent="tddwjaCoOD4uYsPgDnM7-29" vertex="1">
          <mxGeometry y="60" width="160" height="26" as="geometry" />
        </mxCell>
        <mxCell id="tddwjaCoOD4uYsPgDnM7-33" value="" style="endArrow=block;html=1;rounded=0;exitX=0;exitY=0.5;exitDx=0;exitDy=0;entryX=-0.006;entryY=0.988;entryDx=0;entryDy=0;entryPerimeter=0;endFill=0;" parent="1" source="tddwjaCoOD4uYsPgDnM7-30" target="tddwjaCoOD4uYsPgDnM7-2" edge="1">
          <mxGeometry width="50" height="50" relative="1" as="geometry">
            <mxPoint x="40" y="500" as="sourcePoint" />
            <mxPoint x="40" y="230" as="targetPoint" />
            <Array as="points">
              <mxPoint x="40" y="490" />
              <mxPoint x="40" y="279" />
            </Array>
          </mxGeometry>
        </mxCell>
        <mxCell id="tddwjaCoOD4uYsPgDnM7-35" value="Administrador" style="swimlane;fontStyle=1;align=center;verticalAlign=top;childLayout=stackLayout;horizontal=1;startSize=26;horizontalStack=0;resizeParent=1;resizeParentMax=0;resizeLast=0;collapsible=1;marginBottom=0;whiteSpace=wrap;html=1;" parent="1" vertex="1">
          <mxGeometry x="100" y="560" width="160" height="86" as="geometry" />
        </mxCell>
        <mxCell id="tddwjaCoOD4uYsPgDnM7-36" value="&amp;nbsp;&amp;nbsp;" style="text;strokeColor=none;fillColor=none;align=left;verticalAlign=top;spacingLeft=4;spacingRight=4;overflow=hidden;rotatable=0;points=[[0,0.5],[1,0.5]];portConstraint=eastwest;whiteSpace=wrap;html=1;" parent="tddwjaCoOD4uYsPgDnM7-35" vertex="1">
          <mxGeometry y="26" width="160" height="26" as="geometry" />
        </mxCell>
        <mxCell id="tddwjaCoOD4uYsPgDnM7-37" value="" style="line;strokeWidth=1;fillColor=none;align=left;verticalAlign=middle;spacingTop=-1;spacingLeft=3;spacingRight=3;rotatable=0;labelPosition=right;points=[];portConstraint=eastwest;strokeColor=inherit;" parent="tddwjaCoOD4uYsPgDnM7-35" vertex="1">
          <mxGeometry y="52" width="160" height="8" as="geometry" />
        </mxCell>
        <mxCell id="tddwjaCoOD4uYsPgDnM7-38" value="&amp;nbsp; &amp;nbsp;" style="text;strokeColor=none;fillColor=none;align=left;verticalAlign=top;spacingLeft=4;spacingRight=4;overflow=hidden;rotatable=0;points=[[0,0.5],[1,0.5]];portConstraint=eastwest;whiteSpace=wrap;html=1;" parent="tddwjaCoOD4uYsPgDnM7-35" vertex="1">
          <mxGeometry y="60" width="160" height="26" as="geometry" />
        </mxCell>
        <mxCell id="tddwjaCoOD4uYsPgDnM7-40" style="edgeStyle=orthogonalEdgeStyle;rounded=0;orthogonalLoop=1;jettySize=auto;html=1;entryX=0;entryY=0.5;entryDx=0;entryDy=0;endArrow=block;endFill=0;" parent="1" source="tddwjaCoOD4uYsPgDnM7-36" target="tddwjaCoOD4uYsPgDnM7-2" edge="1">
          <mxGeometry relative="1" as="geometry">
            <Array as="points">
              <mxPoint x="30" y="599" />
              <mxPoint x="30" y="238" />
            </Array>
          </mxGeometry>
        </mxCell>
        <mxCell id="tddwjaCoOD4uYsPgDnM7-43" style="edgeStyle=orthogonalEdgeStyle;rounded=0;orthogonalLoop=1;jettySize=auto;html=1;entryX=-0.006;entryY=0.366;entryDx=0;entryDy=0;entryPerimeter=0;endArrow=open;endFill=0;" parent="1" source="tddwjaCoOD4uYsPgDnM7-30" target="tddwjaCoOD4uYsPgDnM7-10" edge="1">
          <mxGeometry relative="1" as="geometry">
            <Array as="points">
              <mxPoint x="410" y="489" />
              <mxPoint x="410" y="245" />
            </Array>
          </mxGeometry>
        </mxCell>
        <mxCell id="tddwjaCoOD4uYsPgDnM7-44" value="n" style="text;html=1;align=center;verticalAlign=middle;resizable=0;points=[];autosize=1;strokeColor=none;fillColor=none;" parent="1" vertex="1">
          <mxGeometry x="254" y="465" width="30" height="30" as="geometry" />
        </mxCell>
        <mxCell id="tddwjaCoOD4uYsPgDnM7-45" value="m" style="text;html=1;align=center;verticalAlign=middle;resizable=0;points=[];autosize=1;strokeColor=none;fillColor=none;" parent="1" vertex="1">
          <mxGeometry x="398" y="224" width="30" height="30" as="geometry" />
        </mxCell>
        <mxCell id="tddwjaCoOD4uYsPgDnM7-47" value="Interactua" style="text;html=1;align=center;verticalAlign=middle;resizable=0;points=[];autosize=1;strokeColor=none;fillColor=none;" parent="1" vertex="1">
          <mxGeometry x="318" y="465" width="80" height="30" as="geometry" />
        </mxCell>
        <mxCell id="tddwjaCoOD4uYsPgDnM7-49" style="edgeStyle=orthogonalEdgeStyle;rounded=0;orthogonalLoop=1;jettySize=auto;html=1;endArrow=open;endFill=0;entryX=0.45;entryY=1;entryDx=0;entryDy=0;entryPerimeter=0;" parent="1" source="tddwjaCoOD4uYsPgDnM7-36" target="tddwjaCoOD4uYsPgDnM7-12" edge="1">
          <mxGeometry relative="1" as="geometry">
            <mxPoint x="502" y="460" as="targetPoint" />
          </mxGeometry>
        </mxCell>
        <mxCell id="tddwjaCoOD4uYsPgDnM7-50" value="n" style="text;html=1;align=center;verticalAlign=middle;resizable=0;points=[];autosize=1;strokeColor=none;fillColor=none;" parent="1" vertex="1">
          <mxGeometry x="254" y="590" width="30" height="30" as="geometry" />
        </mxCell>
        <mxCell id="tddwjaCoOD4uYsPgDnM7-51" value="m" style="text;html=1;align=center;verticalAlign=middle;resizable=0;points=[];autosize=1;strokeColor=none;fillColor=none;" parent="1" vertex="1">
          <mxGeometry x="478" y="451" width="30" height="30" as="geometry" />
        </mxCell>
        <mxCell id="tddwjaCoOD4uYsPgDnM7-52" value="Verifica" style="text;html=1;align=center;verticalAlign=middle;resizable=0;points=[];autosize=1;strokeColor=none;fillColor=none;" parent="1" vertex="1">
          <mxGeometry x="364" y="575" width="60" height="30" as="geometry" />
        </mxCell>
        <mxCell id="tddwjaCoOD4uYsPgDnM7-53" value="" style="endArrow=open;html=1;rounded=0;exitX=0.994;exitY=-0.154;exitDx=0;exitDy=0;exitPerimeter=0;entryX=1.013;entryY=0;entryDx=0;entryDy=0;entryPerimeter=0;endFill=0;" parent="1" source="tddwjaCoOD4uYsPgDnM7-36" target="tddwjaCoOD4uYsPgDnM7-32" edge="1">
          <mxGeometry width="50" height="50" relative="1" as="geometry">
            <mxPoint x="268" y="586" as="sourcePoint" />
            <mxPoint x="318" y="536" as="targetPoint" />
            <Array as="points">
              <mxPoint x="320" y="582" />
              <mxPoint x="320" y="510" />
            </Array>
          </mxGeometry>
        </mxCell>
        <mxCell id="tddwjaCoOD4uYsPgDnM7-54" value="1" style="text;html=1;align=center;verticalAlign=middle;resizable=0;points=[];autosize=1;strokeColor=none;fillColor=none;" parent="1" vertex="1">
          <mxGeometry x="252" y="559" width="30" height="30" as="geometry" />
        </mxCell>
        <mxCell id="tddwjaCoOD4uYsPgDnM7-55" value="n" style="text;html=1;align=center;verticalAlign=middle;resizable=0;points=[];autosize=1;strokeColor=none;fillColor=none;" parent="1" vertex="1">
          <mxGeometry x="262" y="504" width="30" height="30" as="geometry" />
        </mxCell>
        <mxCell id="tddwjaCoOD4uYsPgDnM7-56" value="Notifica" style="text;html=1;align=center;verticalAlign=middle;resizable=0;points=[];autosize=1;strokeColor=none;fillColor=none;flipV=0;flipH=1;rotation=270;" parent="1" vertex="1">
          <mxGeometry x="300" y="534" width="60" height="30" as="geometry" />
        </mxCell>
      </root>
    </mxGraphModel>
  </diagram>
</mxfile>
